<svg width="60" height="60" xmlns="http://www.w3.org/2000/svg"><path d="M53.93 28h-9.86c-1.096 0-2.07.952-2.07 2.143v.714c0 1.19.852 2.143 2.07 2.143h9.86c1.096 0 2.07-.952 2.07-2.143v-.714c0-1.19-.852-2.143-2.07-2.143zM30.8 8.891c-3 2.534-9.36 6.275-13.8 9.775l-.12.241c-.48.362-.72 1.207-3.72 1.207H7.4c-1.44 0-2.4.724-2.4 2.414V37.37c0 1.69.84 2.534 2.4 2.534h5.76c2.88 0 3.12.845 3.72 1.207l.12.241c4.44 3.5 10.8 7.482 13.92 9.896.96.724 4.08 2.051 4.08-2.534v-37.41c-.12-4.707-3.24-3.258-4.2-2.414zm8.8 10.186c.497.956 1.614 1.195 2.359.597l8.317-7.167c.745-.717.993-2.031.372-2.987l-.248-.597c-.497-.956-1.614-1.195-2.359-.597l-8.317 7.167c-.745.717-.993 2.031-.372 2.987l.248.597zm2.331 21.36c-.751-.765-1.879-.51-2.38.639l-.25.638c-.501 1.021-.376 2.425.375 3.19l8.393 7.658c.751.766 1.879.51 2.38-.638l.25-.638c.501-1.021.376-2.425-.375-3.19l-8.393-7.658z"/></svg>