<svg width="60" height="60" xmlns="http://www.w3.org/2000/svg"><path d="M45.8 5H15.2C9.59 5 5 9.5 5 15v30c0 5.5 4.59 10 10.2 10h30.6C51.41 55 56 50.5 56 45V15c0-5.5-4.59-10-10.2-10zM23 5h15v13l-7.5-5.33-7.5 5.07V5zm16.755 27.148l-3.738 3.664c-.25.252-.374.505-.25.884l.873 5.054c.124.884-.748 1.516-1.496 1.01l-4.61-2.4c-.25-.126-.624-.126-.998 0l-4.61 2.527c-.748.379-1.62-.253-1.496-1.01l.872-5.055c0-.379 0-.631-.249-.884l-3.738-3.664c-.624-.632-.25-1.641.498-1.767l5.11-.758c.373 0 .622-.253.747-.506l2.243-4.674c.374-.759 1.496-.759 1.87 0l2.243 4.674c.124.253.498.506.747.506l5.11.758c1.121 0 1.37 1.01.872 1.64z"/></svg>