<svg class="icon" viewBox="0 0 1024 1024" xmlns="http://www.w3.org/2000/svg" width="200" height="200"><defs><style/></defs><path d="M512 407.04c-66.56 0-117.76 51.2-117.76 117.76S445.44 642.56 512 642.56s117.76-51.2 117.76-117.76S578.56 407.04 512 407.04zm0-176.64c-197.12 0-368.64 122.88-435.2 294.4C143.36 696.32 314.88 819.2 512 819.2c197.12 0 368.64-122.88 435.2-294.4C880.64 353.28 709.12 230.4 512 230.4zm0 491.52c-110.08 0-197.12-87.04-197.12-197.12S401.92 327.68 512 327.68s197.12 87.04 197.12 197.12S622.08 721.92 512 721.92z"/></svg>