<svg width="60" height="60" xmlns="http://www.w3.org/2000/svg"><path d="M35.137 44.196h-9.94c-.025-1.435-.04-2.31-.04-2.626 0-3.237.534-5.9 1.599-7.99 1.065-2.087 3.196-4.44 6.394-7.05 3.196-2.611 5.107-4.323 5.73-5.132.962-1.277 1.442-2.69 1.442-4.229 0-2.139-.852-3.974-2.552-5.502-1.704-1.529-3.995-2.291-6.88-2.291-2.782 0-5.108.797-6.977 2.39-1.87 1.595-3.157 4.023-3.858 7.286L10 17.801c.283-4.676 2.268-8.641 5.946-11.905C19.615 2.63 24.445 1 30.42 1c6.29 0 11.29 1.65 15.006 4.954C49.143 9.26 51 13.1 51 17.49c0 2.427-.683 4.726-2.045 6.892-1.364 2.168-4.283 5.116-8.752 8.852-2.31 1.932-3.749 3.486-4.308 4.66-.558 1.173-.81 3.273-.758 6.3v.003zM25.197 59V47.996h10.955V59H25.198z"/></svg>