<svg class="icon" viewBox="0 0 1024 1024" xmlns="http://www.w3.org/2000/svg" width="200" height="200"><defs><style/></defs><path d="M936.324 409.864H664.51C769.941 21.086 592.025 0 592.025 0c-75.449 0-59.634 59.634-65.894 69.519 0 190.105-201.967 339.356-201.967 339.356V949.21c0 53.374 72.484 72.484 101.148 72.484h408.546c38.878-.33 69.848-99.171 69.848-99.171 100.819-344.958 100.819-447.424 100.819-447.424a61.611 61.611 0 00-68.2-65.894zm0 0M213.791 410.193H49.055a32.947 32.947 0 00-32.947 32.947l32.947 545.277a32.947 32.947 0 0035.254 32.947h141.014c29.323 0 28.993-23.063 28.993-23.063V451.377a40.196 40.196 0 00-40.525-41.184zm0 0"/></svg>